<?xml version="1.0" encoding="utf-8"?>
<svg xmlns="http://www.w3.org/2000/svg" viewBox="0 0 500 500" width="500px" height="500px" xmlns:bx="https://boxy-svg.com">
  <defs>
    <bx:grid x="0" y="0" width="50" height="50" divisions="10"/>
  </defs>
  <path style="fill: rgb(216, 216, 216); stroke: rgb(0, 0, 0); pointer-events: none;" d="M 485.894 33.399 C 478.126 33.673 431.627 31.029 431.627 31.029 C 431.627 31.029 428.33 73.581 424.479 87.849 C 412.396 132.57 404.461 177.812 384.989 219.878 C 375.421 240.55 362.226 260.162 347.764 276.362 C 338.361 286.899 328.655 296.743 319.22 307.225 C 312.49 314.688 309.751 317.415 304.391 325.149 C 278.79 362.069 300.637 348.231 241.676 341.303 C 228.031 339.7 214.3 339.043 200.604 338.603 C 172.21 337.684 143.672 338.631 115.267 338.828 C 109.976 338.865 76.963 345.446 74.712 341.265 C 70.237 332.856 71.216 301.074 68.271 290.349 C 55.93 245.621 46.544 208.769 41.794 161.772 C 40.54 149.548 38.023 137.472 36.465 125.322 C 36.18 122.95 33.681 106.75 34.308 106.572 C 57.45 100.104 84.934 106.741 108.312 106.741 C 168.22 106.741 228.724 110.651 288.666 112.722 C 317.09 113.707 377.595 114.653 406.005 115.43 C 416.013 115.704 426.504 25 426.504 25 L 488 25 L 485.894 33.399 Z"/>
  <path style="fill: rgb(216, 216, 216); stroke: rgb(0, 0, 0); pointer-events: none;" d="M 283.254 358.674 C 275.307 358.178 266.565 355.796 258.737 358.656 C 252.903 360.793 247.594 370.328 243.858 375.437 C 228.318 396.691 222.028 418.606 236.738 441.241 C 255.913 470.733 296.663 475.556 325.392 474.951 C 352.79 474.375 350.434 434.19 342.893 412.888 C 336.416 394.601 321.57 368.237 304.949 360.522 C 296.799 356.752 281.14 357.127 275.307 357.127 L 283.254 358.674 Z"/>
  <path style="fill: rgb(216, 216, 216); stroke: rgb(0, 0, 0); pointer-events: none;" d="M 85.865 359.153 C 60.281 348.231 26.879 367.337 16.771 396.718 C 13.408 406.499 9.969 428.797 17.56 437.108 C 45.395 467.535 108.76 474.595 128.064 427.357 C 135.958 408.022 127.351 385.391 113.899 373.3 C 109.908 369.719 89.172 359.312 91.338 359.312 L 85.865 359.153 Z"/>
  <path style="fill: rgb(216, 216, 216); stroke: rgb(0, 0, 0); stroke-width: 5px;" d="M 49.893 203.268 L 150 100"/>
  <path style="fill: rgb(216, 216, 216); stroke: rgb(0, 0, 0); stroke-width: 5px;" d="M 74.06 326.733 L 275 125"/>
  <path style="fill: rgb(216, 216, 216); stroke: rgb(0, 0, 0); stroke-width: 5px;" d="M 192.133 334.624 L 400 125"/>
  <path style="fill: rgb(216, 216, 216); stroke: rgb(0, 0, 0); stroke-width: 5px;" d="M 346.961 277.46 L 100 100"/>
  <path style="fill: rgb(216, 216, 216); stroke: rgb(0, 0, 0); stroke-width: 5px;" d="M 304.069 321.957 L 50 150"/>
  <path style="fill: rgb(216, 216, 216); stroke: rgb(0, 0, 0); stroke-width: 5px;" d="M 215.67 336.593 L 50 250"/>
</svg>